<svg width="16" height="7" viewBox="0 0 16 7" fill="none" xmlns="http://www.w3.org/2000/svg">
<g clip-path="url(#clip0_16_284)">
<rect width="16" height="7" fill="white"/>
<path d="M2.44865 5.56689C2.26486 5.56689 2.11351 5.55309 1.99459 5.5255C1.87928 5.49446 1.78378 5.44272 1.70811 5.37029C1.63243 5.29786 1.57838 5.20645 1.54595 5.09608C1.51712 4.98571 1.5027 4.84085 1.5027 4.66149V2.34885C1.5027 2.16605 1.51712 2.01946 1.54595 1.90909C1.57838 1.79527 1.63243 1.70214 1.70811 1.62971C1.78018 1.55728 1.87568 1.50727 1.99459 1.47967C2.11351 1.44863 2.27027 1.43311 2.46486 1.43311H9C9.18378 1.43311 9.33333 1.44863 9.44865 1.47967C9.56757 1.50727 9.66487 1.55728 9.74054 1.62971C9.81622 1.70214 9.86847 1.79355 9.8973 1.90392C9.92973 2.01429 9.94595 2.15915 9.94595 2.33851V4.66149C9.94595 4.99951 9.87748 5.23577 9.74054 5.37029C9.66487 5.44272 9.56937 5.49446 9.45405 5.5255C9.33874 5.55309 9.18739 5.56689 9 5.56689H2.44865ZM2.88108 7C2.41982 7 1.9982 6.96551 1.61622 6.89653C1.23784 6.82409 0.90991 6.65509 0.632432 6.3895C0.354955 6.12737 0.18018 5.81523 0.108108 5.45307C0.0360361 5.08746 0 4.68391 0 4.24242V2.74205C0 2.31091 0.0360361 1.91426 0.108108 1.55211C0.183784 1.18995 0.358559 0.876078 0.632432 0.610495C0.90991 0.348362 1.23784 0.181079 1.61622 0.108647C1.9982 0.0362158 2.41622 0 2.87027 0H11.3784C11.8396 0 12.2613 0.0362158 12.6432 0.108647C13.0252 0.17763 13.355 0.344912 13.6324 0.610495C13.9063 0.872629 14.0793 1.1865 14.1514 1.55211C14.227 1.91426 14.2649 2.31609 14.2649 2.75758V4.24242C14.2649 4.68391 14.227 5.08746 14.1514 5.45307C14.0793 5.81523 13.9063 6.12737 13.6324 6.3895C13.355 6.65509 13.0252 6.82409 12.6432 6.89653C12.2613 6.96551 11.8396 7 11.3784 7H2.88108ZM2.73514 6.16704H11.5297C11.8072 6.16704 12.0793 6.14289 12.3459 6.0946C12.6162 6.04287 12.8324 5.93939 12.9946 5.78418C13.1604 5.62552 13.2685 5.4203 13.3189 5.16851C13.3694 4.91328 13.3946 4.65115 13.3946 4.38211V2.61271C13.3946 2.34713 13.3694 2.08845 13.3189 1.83666C13.2685 1.58142 13.1604 1.37448 12.9946 1.21582C12.8324 1.06061 12.6162 0.958857 12.3459 0.910569C12.0793 0.858832 11.8072 0.832964 11.5297 0.832964H2.75135C2.46667 0.832964 2.18739 0.857108 1.91351 0.905395C1.64324 0.953683 1.42703 1.05716 1.26486 1.21582C1.1027 1.37103 0.996396 1.57798 0.945946 1.83666C0.895495 2.09189 0.87027 2.35575 0.87027 2.62823V4.38211C0.87027 4.65115 0.895495 4.91328 0.945946 5.16851C0.996396 5.4203 1.1027 5.62552 1.26486 5.78418C1.43063 5.93939 1.64685 6.04287 1.91351 6.0946C2.18378 6.14289 2.45766 6.16704 2.73514 6.16704ZM15 4.8374V2.1626C15.1441 2.1695 15.2937 2.22986 15.4486 2.34368C15.6036 2.4575 15.7333 2.61271 15.8378 2.80931C15.9459 3.00591 16 3.23528 16 3.49741C16 3.763 15.9459 3.99409 15.8378 4.19069C15.7333 4.38729 15.6036 4.5425 15.4486 4.65632C15.2937 4.76669 15.1441 4.82705 15 4.8374Z" fill="black"/>
</g>
<defs>
<clipPath id="clip0_16_284">
<rect width="16" height="7" fill="white"/>
</clipPath>
</defs>
</svg>
