<svg width="12" height="12" viewBox="0 0 12 12" fill="none" xmlns="http://www.w3.org/2000/svg">
<g clip-path="url(#clip0_16_194)">
<rect width="12" height="12" fill="white"/>
<path d="M5.45717 4.18401L4.62472 4.42341V1.55608C4.62472 1.28404 4.57575 1.09542 4.47782 0.990234C4.37988 0.885045 4.20396 0.83245 3.95006 0.83245C3.63086 0.83245 3.30985 0.899554 2.98703 1.03376C2.6642 1.16797 2.3704 1.3457 2.10561 1.56696C1.84082 1.78823 1.62681 2.03488 1.46359 2.30692C1.30399 2.57533 1.22419 2.84556 1.22419 3.11761C1.22419 3.44043 1.34208 3.72154 1.57785 3.96094C1.81724 4.19671 2.16546 4.41797 2.62249 4.62472C3.08315 4.82785 3.64537 5.04004 4.30915 5.2613L3.96094 6.05022C3.20647 5.80357 2.56264 5.54422 2.02944 5.27218C1.49986 4.99651 1.09361 4.68638 0.810686 4.3418C0.531389 3.99358 0.391741 3.58552 0.391741 3.11761C0.391741 2.73312 0.493303 2.35589 0.696428 1.98591C0.903181 1.61593 1.17704 1.28223 1.518 0.984794C1.85896 0.683733 2.23982 0.444336 2.66057 0.266602C3.08496 0.0888672 3.51479 0 3.95006 0C4.4361 0 4.8079 0.134208 5.06543 0.402623C5.32659 0.671038 5.45717 1.05552 5.45717 1.55608V4.18401ZM7.51925 5.45717L7.27985 4.62472H10.1526C10.421 4.62472 10.6078 4.57757 10.713 4.48326C10.8182 4.38532 10.8708 4.2094 10.8708 3.9555C10.8708 3.6363 10.8037 3.31529 10.6695 2.99247C10.5353 2.66964 10.3576 2.37584 10.1363 2.11105C9.91504 1.84263 9.66839 1.62863 9.39635 1.46903C9.12793 1.3058 8.8577 1.22419 8.58566 1.22419C8.26283 1.22419 7.98172 1.34389 7.74233 1.58329C7.50656 1.81906 7.2853 2.16727 7.07854 2.62793C6.87542 3.08859 6.66322 3.65262 6.44196 4.32003L5.65304 3.97182C5.89969 3.21373 6.15904 2.56808 6.43108 2.03488C6.70675 1.50167 7.01688 1.09542 7.36147 0.816127C7.70968 0.533203 8.11775 0.391741 8.58566 0.391741C8.97014 0.391741 9.34738 0.495117 9.71735 0.701869C10.0873 0.904994 10.421 1.17885 10.7185 1.52344C11.0195 1.8644 11.2589 2.24707 11.4367 2.67146C11.6144 3.09222 11.7033 3.52023 11.7033 3.9555C11.7033 4.44155 11.5691 4.81334 11.3006 5.07087C11.0359 5.3284 10.6532 5.45717 10.1526 5.45717H7.51925ZM6.24609 7.52469L7.07854 7.2853V10.1581C7.07854 10.4265 7.1257 10.6115 7.22001 10.713C7.31794 10.8182 7.49386 10.8708 7.74777 10.8708C8.07059 10.8744 8.3916 10.8092 8.7108 10.6749C9.03362 10.5407 9.32743 10.363 9.59222 10.1417C9.86063 9.92048 10.0746 9.67564 10.2342 9.40723C10.3975 9.13518 10.4791 8.86314 10.4791 8.5911C10.4791 8.26828 10.3594 7.98898 10.12 7.75321C9.88421 7.51381 9.53599 7.29255 9.07533 7.08943C8.61468 6.88267 8.05245 6.66867 7.38867 6.4474L7.73689 5.65848C8.49135 5.90513 9.13518 6.16629 9.66839 6.44196C10.2016 6.71401 10.6078 7.02413 10.8871 7.37235C11.1701 7.71694 11.3115 8.12319 11.3115 8.5911C11.3115 8.97921 11.2081 9.35826 11.0014 9.72824C10.7983 10.0946 10.5244 10.4265 10.1798 10.7239C9.83887 11.025 9.45619 11.2644 9.03181 11.4421C8.61105 11.6198 8.18303 11.7087 7.74777 11.7087C7.26172 11.7087 6.88993 11.5745 6.63239 11.3061C6.37486 11.0413 6.24609 10.6586 6.24609 10.1581V7.52469ZM4.17857 6.24609L4.41797 7.07854H1.5452C1.27679 7.07854 1.08998 7.12751 0.984794 7.22545C0.883231 7.32338 0.83245 7.4993 0.83245 7.75321C0.83245 8.07603 0.89774 8.39886 1.02832 8.72168C1.16253 9.04088 1.34026 9.33468 1.56152 9.6031C1.78641 9.86788 2.03306 10.0801 2.30148 10.2397C2.56989 10.3993 2.84012 10.4791 3.11216 10.4791C3.43499 10.4791 3.71429 10.3594 3.95006 10.12C4.18945 9.88421 4.41071 9.53781 4.61384 9.08078C4.82059 8.62012 5.0346 8.0579 5.25586 7.39411L6.04478 7.74233C5.79813 8.49679 5.53697 9.14062 5.2613 9.67383C4.98926 10.207 4.67913 10.6133 4.33091 10.8926C3.98633 11.1755 3.58008 11.317 3.11216 11.317C2.72768 11.317 2.35045 11.2136 1.98047 11.0068C1.61049 10.8037 1.27679 10.5299 0.979353 10.1853C0.68192 9.84431 0.444336 9.46345 0.266602 9.04269C0.0888672 8.6183 0 8.18848 0 7.75321C0 7.26716 0.132394 6.89537 0.397182 6.63783C0.665597 6.37667 1.04827 6.24609 1.5452 6.24609H4.17857ZM5.84891 7.91643C5.46805 7.91643 5.12165 7.82394 4.80971 7.63895C4.49777 7.45396 4.2493 7.2055 4.06431 6.89355C3.87932 6.58161 3.78683 6.23521 3.78683 5.85435C3.78683 5.47349 3.87932 5.12709 4.06431 4.81515C4.2493 4.50321 4.49777 4.25474 4.80971 4.06975C5.12165 3.88477 5.46805 3.79227 5.84891 3.79227C6.22977 3.79227 6.57617 3.88477 6.88811 4.06975C7.20006 4.25474 7.44852 4.50321 7.63351 4.81515C7.8185 5.12709 7.91099 5.47349 7.91099 5.85435C7.91099 6.23521 7.8185 6.58161 7.63351 6.89355C7.44852 7.2055 7.20006 7.45396 6.88811 7.63895C6.57617 7.82394 6.22977 7.91643 5.84891 7.91643ZM5.84891 7.07854C6.0738 7.07854 6.27874 7.02413 6.46373 6.91532C6.64872 6.80287 6.79562 6.65416 6.90444 6.46917C7.01688 6.28418 7.0731 6.07924 7.0731 5.85435C7.0731 5.62946 7.01688 5.42453 6.90444 5.23954C6.79562 5.05455 6.64872 4.90765 6.46373 4.79883C6.27874 4.68638 6.0738 4.63016 5.84891 4.63016C5.62402 4.63016 5.41908 4.68638 5.2341 4.79883C5.04911 4.90765 4.90039 5.05455 4.78795 5.23954C4.67913 5.42453 4.62472 5.62946 4.62472 5.85435C4.62472 6.07924 4.67913 6.28418 4.78795 6.46917C4.90039 6.65416 5.04911 6.80287 5.2341 6.91532C5.41908 7.02413 5.62402 7.07854 5.84891 7.07854ZM5.84891 6.63239C5.6349 6.63239 5.45173 6.55622 5.29939 6.40388C5.14704 6.25153 5.07087 6.06836 5.07087 5.85435C5.07087 5.64035 5.14704 5.45717 5.29939 5.30483C5.45173 5.15248 5.6349 5.07631 5.84891 5.07631C6.06292 5.07631 6.24609 5.15248 6.39844 5.30483C6.55078 5.45717 6.62695 5.64035 6.62695 5.85435C6.62695 6.06836 6.55078 6.25153 6.39844 6.40388C6.24609 6.55622 6.06292 6.63239 5.84891 6.63239Z" fill="black"/>
</g>
<defs>
<clipPath id="clip0_16_194">
<rect width="12" height="12" fill="white"/>
</clipPath>
</defs>
</svg>
