<svg width="12" height="12" viewBox="0 0 12 12" fill="none" xmlns="http://www.w3.org/2000/svg">
<g clip-path="url(#clip0_16_244)">
<rect width="12" height="12" fill="white"/>
<path d="M11.7061 3.95312C11.706 4.43902 11.572 4.81086 11.3037 5.06836C11.0354 5.32945 10.6507 5.45989 10.1504 5.45996H7.87891C7.89425 5.54337 7.90495 5.62864 7.91016 5.71582C8.5923 5.94489 9.17963 6.18298 9.6709 6.43359C10.204 6.7092 10.6104 7.01976 10.8896 7.36426C11.1726 7.71247 11.3145 8.12095 11.3145 8.58887C11.3144 8.97326 11.2106 9.35082 11.0039 9.7207C10.8008 10.0905 10.5271 10.4244 10.1826 10.7217C9.84169 11.0227 9.45851 11.2617 9.03418 11.4395C8.61365 11.617 8.18599 11.706 7.75098 11.7061C7.26493 11.7061 6.8923 11.5721 6.63477 11.3037C6.37732 11.0389 6.24902 10.6557 6.24902 10.1553V7.87793C6.1647 7.89368 6.07843 7.90381 5.99023 7.90918C5.76027 8.59087 5.51841 9.17815 5.26367 9.6709C4.99173 10.2039 4.68205 10.6104 4.33398 10.8896C3.98947 11.1725 3.58303 11.3144 3.11523 11.3145C2.72712 11.3145 2.34752 11.2107 1.97754 11.0039C1.61136 10.8008 1.27974 10.5271 0.982422 10.1826C0.681422 9.84173 0.441395 9.45944 0.263672 9.03516C0.0859756 8.61449 -0.0028916 8.18615 -0.00292969 7.75098C-0.00292969 7.26493 0.131975 6.89328 0.400391 6.63574C0.665154 6.37824 1.04737 6.24905 1.54785 6.24902H3.82715C3.81132 6.16429 3.7993 6.0779 3.79395 5.98926C3.11257 5.75937 2.5248 5.5193 2.03223 5.26465C1.49907 4.99263 1.09277 4.68216 0.813477 4.33398C0.530581 3.98943 0.3887 3.58309 0.388672 3.11523C0.388672 2.73075 0.492467 2.35338 0.699219 1.9834C0.902299 1.6135 1.17603 1.27981 1.52051 0.982422C1.8614 0.685045 2.24242 0.447255 2.66309 0.269531C3.08747 0.0917969 3.51786 0.00292969 3.95312 0.00292969C4.43904 0.00298034 4.81088 0.135653 5.06836 0.400391C5.32933 0.668745 5.45991 1.05119 5.45996 1.54785V3.8252C5.5431 3.80991 5.62795 3.79819 5.71484 3.79297C5.94438 3.11202 6.18241 2.52455 6.43359 2.03223C6.70926 1.50265 7.01967 1.0964 7.36426 0.813477C7.71246 0.534216 8.12098 0.394531 8.58887 0.394531C8.97308 0.394605 9.35 0.496307 9.71973 0.699219C10.0897 0.905965 10.4243 1.17956 10.7217 1.52051C11.0227 1.86137 11.2617 2.24247 11.4395 2.66309C11.6172 3.08747 11.7061 3.51786 11.7061 3.95312ZM5.12402 7.78418C5.0169 7.74389 4.91254 7.69603 4.8125 7.63672C4.56708 7.49118 4.36215 7.30517 4.19531 7.08105H1.54785C1.2797 7.08107 1.09475 7.1285 0.993164 7.22266C0.887974 7.32059 0.834961 7.49707 0.834961 7.75098C0.831375 8.0737 0.897082 8.39476 1.03125 8.71387C1.16542 9.03655 1.3433 9.33003 1.56445 9.59473C1.78571 9.86314 2.03041 10.0777 2.29883 10.2373C2.57085 10.4005 2.84321 10.4824 3.11523 10.4824C3.43794 10.4824 3.71742 10.3624 3.95313 10.123C4.19249 9.88728 4.41311 9.53872 4.61621 9.07812C4.78088 8.71124 4.95015 8.27992 5.12402 7.78418ZM4.62793 1.54785C4.6279 1.27959 4.57837 1.09246 4.48047 0.987305C4.38251 0.88597 4.20664 0.834998 3.95312 0.834961C3.6303 0.834961 3.3072 0.90067 2.98438 1.03125C2.66518 1.16546 2.37095 1.34319 2.10254 1.56445C1.83786 1.78929 1.62635 2.03635 1.4668 2.30469C1.30721 2.5731 1.22656 2.8432 1.22656 3.11523C1.2266 3.438 1.34658 3.71739 1.58594 3.95313C1.82169 4.19251 2.16801 4.41407 2.625 4.61719C2.99171 4.78177 3.42351 4.94927 3.91895 5.12305C3.9592 5.01618 4.00819 4.91231 4.06738 4.8125C4.21418 4.56502 4.40121 4.35799 4.62793 4.19043V1.54785ZM7.07617 5.85156C7.07613 5.62687 7.01954 5.42216 6.90723 5.2373C6.79846 5.0524 6.65166 4.90344 6.4668 4.79102C6.28181 4.6822 6.07645 4.62793 5.85156 4.62793C5.62683 4.62795 5.42219 4.68232 5.2373 4.79102C5.05232 4.90346 4.90346 5.05232 4.79102 5.2373C4.68228 5.42219 4.62797 5.62682 4.62793 5.85156C4.62793 6.07645 4.6822 6.28181 4.79102 6.4668C4.90344 6.65168 5.05239 6.79845 5.2373 6.90723C5.42219 7.01955 5.62683 7.07615 5.85156 7.07617C6.07645 7.07617 6.28181 7.01967 6.4668 6.90723C6.65162 6.79845 6.79847 6.65165 6.90723 6.4668C7.01967 6.28181 7.07617 6.07645 7.07617 5.85156ZM6.62988 5.85156C6.62988 6.06554 6.55366 6.24904 6.40137 6.40137C6.24902 6.55371 6.06557 6.62988 5.85156 6.62988C5.63762 6.62985 5.45407 6.55368 5.30176 6.40137C5.14955 6.24906 5.07324 6.06547 5.07324 5.85156C5.07331 5.63787 5.14976 5.45493 5.30176 5.30273C5.45407 5.15042 5.63762 5.07425 5.85156 5.07422C6.06557 5.07422 6.24902 5.15039 6.40137 5.30273C6.55346 5.45496 6.62982 5.63781 6.62988 5.85156ZM10.874 3.95312C10.874 3.63396 10.8061 3.31303 10.6719 2.99023C10.5377 2.66741 10.3599 2.37319 10.1387 2.1084C9.91756 1.84385 9.67123 1.62994 9.39941 1.4668C9.13114 1.30728 8.86077 1.22762 8.58887 1.22754C8.26604 1.22754 7.98451 1.34528 7.74512 1.58105C7.50944 1.82041 7.28773 2.16818 7.08105 2.625C6.91936 2.9917 6.75326 3.42354 6.58008 3.91895C6.68704 3.95921 6.79073 4.00815 6.89062 4.06738C7.1381 4.21414 7.34512 4.40127 7.5127 4.62793H10.1504C10.4222 4.62788 10.6107 4.57835 10.7158 4.48047C10.8209 4.38253 10.874 4.20684 10.874 3.95312Z" fill="black"/>
</g>
<defs>
<clipPath id="clip0_16_244">
<rect width="12" height="12" fill="white"/>
</clipPath>
</defs>
</svg>
