<svg width="12" height="12" viewBox="0 0 12 12" fill="none" xmlns="http://www.w3.org/2000/svg">
<g clip-path="url(#clip0_16_248)">
<rect width="12" height="12" transform="matrix(-1 0 0 -1 12 12)" fill="white"/>
<path d="M7.75293 11.709C7.26704 11.709 6.8952 11.5749 6.6377 11.3066C6.37661 11.0383 6.24617 10.6537 6.24609 10.1533L6.24609 7.88184C6.16268 7.89718 6.07742 7.90788 5.99023 7.91309C5.76117 8.59523 5.52308 9.18256 5.27246 9.67383C4.99685 10.2069 4.6863 10.6133 4.3418 10.8926C3.99358 11.1755 3.5851 11.3174 3.11719 11.3174C2.7328 11.3173 2.35524 11.2135 1.98535 11.0068C1.61555 10.8037 1.28169 10.53 0.984375 10.1855C0.683372 9.84462 0.444312 9.46144 0.266602 9.03711C0.0890101 8.61658 5.6923e-05 8.18892 0 7.75391C0 7.26786 0.133929 6.89523 0.402344 6.6377C0.667127 6.38025 1.05031 6.25195 1.55078 6.25195H3.82812C3.81238 6.16763 3.80225 6.08136 3.79687 5.99316C3.11519 5.7632 2.5279 5.52134 2.03516 5.2666C1.50214 4.99466 1.09569 4.68498 0.816406 4.33691C0.533538 3.9924 0.391658 3.58596 0.391602 3.11816C0.391602 2.73005 0.495396 2.35045 0.702148 1.98047C0.90524 1.61429 1.179 1.28267 1.52344 0.985352C1.86433 0.684352 2.24661 0.444325 2.6709 0.266602C3.09157 0.0889053 3.51991 3.80866e-05 3.95508 0C4.44113 0 4.81278 0.134905 5.07031 0.40332C5.32782 0.668083 5.45701 1.0503 5.45703 1.55078V3.83008C5.54177 3.81425 5.62816 3.80223 5.7168 3.79688C5.94668 3.1155 6.18676 2.52773 6.44141 2.03516C6.71343 1.502 7.02389 1.0957 7.37207 0.816406C7.71662 0.53351 8.12297 0.39163 8.59082 0.391602C8.97531 0.391602 9.35268 0.495396 9.72266 0.702148C10.0926 0.905228 10.4262 1.17896 10.7236 1.52344C11.021 1.86433 11.2588 2.24535 11.4365 2.66602C11.6143 3.0904 11.7031 3.52079 11.7031 3.95605C11.7031 4.44197 11.5704 4.8138 11.3057 5.07129C11.0373 5.33226 10.6549 5.46284 10.1582 5.46289L7.88086 5.46289C7.89615 5.54603 7.90786 5.63088 7.91309 5.71777C8.59404 5.94731 9.18151 6.18534 9.67383 6.43652C10.2034 6.71219 10.6097 7.0226 10.8926 7.36719C11.1718 7.71539 11.3115 8.12391 11.3115 8.5918C11.3114 8.97601 11.2097 9.35293 11.0068 9.72266C10.8001 10.0926 10.5265 10.4272 10.1855 10.7246C9.84468 11.0256 9.46359 11.2647 9.04297 11.4424C8.61858 11.6201 8.1882 11.709 7.75293 11.709ZM3.92187 5.12695C3.96217 5.01983 4.01002 4.91547 4.06934 4.81543C4.21488 4.57001 4.40088 4.36508 4.625 4.19824V1.55078C4.62498 1.28263 4.57756 1.09768 4.4834 0.996094C4.38546 0.890904 4.20898 0.837891 3.95508 0.837891C3.63235 0.834305 3.31129 0.900011 2.99219 1.03418C2.6695 1.16835 2.37602 1.34623 2.11133 1.56738C1.84291 1.78864 1.62835 2.03334 1.46875 2.30176C1.30555 2.57378 1.22363 2.84614 1.22363 3.11816C1.2237 3.44087 1.34368 3.72035 1.58301 3.95605C1.81877 4.19542 2.16734 4.41604 2.62793 4.61914C2.99482 4.78381 3.42614 4.95308 3.92187 5.12695ZM10.1582 4.63086C10.4265 4.63083 10.6136 4.5813 10.7188 4.4834C10.8201 4.38544 10.8711 4.20957 10.8711 3.95605C10.8711 3.63323 10.8054 3.31013 10.6748 2.9873C10.5406 2.66811 10.3629 2.37388 10.1416 2.10547C9.91677 1.84079 9.6697 1.62928 9.40137 1.46973C9.13296 1.31014 8.86286 1.22949 8.59082 1.22949C8.26806 1.22953 7.98867 1.34951 7.75293 1.58887C7.51355 1.82462 7.29198 2.17094 7.08887 2.62793C6.92428 2.99464 6.75679 3.42644 6.58301 3.92188C6.68988 3.96213 6.79374 4.01112 6.89355 4.07031C7.14103 4.21711 7.34807 4.40414 7.51562 4.63086L10.1582 4.63086ZM5.85449 7.0791C6.07919 7.07906 6.28389 7.02247 6.46875 6.91016C6.65365 6.80139 6.80261 6.65459 6.91504 6.46973C7.02386 6.28474 7.07812 6.07938 7.07812 5.85449C7.0781 5.62976 7.02374 5.42512 6.91504 5.24023C6.80259 5.05525 6.65374 4.90639 6.46875 4.79395C6.28386 4.68521 6.07924 4.6309 5.85449 4.63086C5.6296 4.63086 5.42425 4.68513 5.23926 4.79395C5.05438 4.90637 4.9076 5.05532 4.79883 5.24023C4.68651 5.42512 4.62991 5.62976 4.62988 5.85449C4.62988 6.07938 4.68638 6.28474 4.79883 6.46973C4.90761 6.65455 5.05441 6.8014 5.23926 6.91016C5.42425 7.0226 5.6296 7.0791 5.85449 7.0791ZM5.85449 6.63281C5.64052 6.63281 5.45702 6.55659 5.30469 6.4043C5.15234 6.25195 5.07617 6.0685 5.07617 5.85449C5.07621 5.64055 5.15238 5.457 5.30469 5.30469C5.45699 5.15248 5.64058 5.07617 5.85449 5.07617C6.06818 5.07624 6.25113 5.15269 6.40332 5.30469C6.55563 5.457 6.6318 5.64055 6.63184 5.85449C6.63184 6.0685 6.55566 6.25195 6.40332 6.4043C6.2511 6.55639 6.06825 6.63275 5.85449 6.63281ZM7.75293 10.877C8.0721 10.877 8.39303 10.809 8.71582 10.6748C9.03864 10.5406 9.33287 10.3629 9.59766 10.1416C9.8622 9.92049 10.0761 9.67416 10.2393 9.40234C10.3988 9.13407 10.4784 8.8637 10.4785 8.5918C10.4785 8.26897 10.3608 7.98744 10.125 7.74805C9.88565 7.51237 9.53788 7.29066 9.08105 7.08398C8.71436 6.92229 8.28252 6.75619 7.78711 6.58301C7.74685 6.68997 7.6979 6.79366 7.63867 6.89355C7.49192 7.14103 7.30478 7.34805 7.07812 7.51563L7.07812 10.1533C7.07818 10.4251 7.1277 10.6136 7.22559 10.7188C7.32353 10.8238 7.49921 10.8769 7.75293 10.877Z" fill="black"/>
</g>
<defs>
<clipPath id="clip0_16_248">
<rect width="12" height="12" fill="white" transform="matrix(-1 0 0 -1 12 12)"/>
</clipPath>
</defs>
</svg>
