<svg width="12" height="12" viewBox="0 0 12 12" fill="none" xmlns="http://www.w3.org/2000/svg">
<g clip-path="url(#clip0_16_226)">
<rect width="12" height="12" fill="white"/>
<path d="M3.9502 0C4.43609 2.57119e-05 4.80793 0.134051 5.06543 0.402344C5.32652 0.670684 5.45696 1.05531 5.45703 1.55566V3.82715C5.54044 3.81181 5.62571 3.80111 5.71289 3.7959C5.94196 3.11376 6.18005 2.52643 6.43066 2.03516C6.70627 1.50207 7.01683 1.0957 7.36133 0.816406C7.70954 0.533482 8.11802 0.391602 8.58594 0.391602C8.97033 0.391652 9.34789 0.495446 9.71777 0.702148C10.0876 0.905249 10.4214 1.17899 10.7188 1.52344C11.0198 1.86436 11.2588 2.24755 11.4365 2.67188C11.6141 3.0924 11.7031 3.52006 11.7031 3.95508C11.7031 4.44113 11.5692 4.81376 11.3008 5.07129C11.036 5.32873 10.6528 5.45703 10.1523 5.45703H7.875C7.89075 5.54136 7.90088 5.62763 7.90625 5.71582C8.58794 5.94578 9.17522 6.18764 9.66797 6.44238C10.201 6.71433 10.6074 7.02401 10.8867 7.37207C11.1696 7.71659 11.3115 8.12302 11.3115 8.59082C11.3115 8.97893 11.2077 9.35854 11.001 9.72852C10.7979 10.0947 10.5241 10.4263 10.1797 10.7236C9.8388 11.0246 9.45651 11.2647 9.03223 11.4424C8.61156 11.6201 8.18322 11.7089 7.74805 11.709C7.262 11.709 6.89035 11.5741 6.63281 11.3057C6.37531 11.0409 6.24612 10.6587 6.24609 10.1582V7.87891C6.16136 7.89474 6.07497 7.90676 5.98633 7.91211C5.75644 8.59349 5.51637 9.18126 5.26172 9.67383C4.9897 10.207 4.67923 10.6133 4.33105 10.8926C3.9865 11.1755 3.58016 11.3174 3.1123 11.3174C2.72782 11.3174 2.35045 11.2136 1.98047 11.0068C1.61057 10.8038 1.27688 10.53 0.979492 10.1855C0.682115 9.84465 0.444325 9.46363 0.266602 9.04297C0.0888672 8.61858 0 8.1882 0 7.75293C5.06476e-05 7.26702 0.132724 6.89518 0.397461 6.6377C0.665815 6.37672 1.04826 6.24614 1.54492 6.24609H3.82227C3.80698 6.16295 3.79526 6.0781 3.79004 5.99121C3.10909 5.76167 2.52162 5.52364 2.0293 5.27246C1.49972 4.99679 1.09347 4.68638 0.810547 4.3418C0.531286 3.9936 0.391602 3.58507 0.391602 3.11719C0.391675 2.73298 0.493377 2.35605 0.696289 1.98633C0.903035 1.61636 1.17663 1.2818 1.51758 0.984375C1.85844 0.683399 2.23954 0.444321 2.66016 0.266602C3.08454 0.0888672 3.51493 0 3.9502 0ZM1.54492 7.07812C1.27666 7.07816 1.08953 7.12768 0.984375 7.22559C0.883041 7.32354 0.832068 7.49941 0.832031 7.75293C0.832031 8.07575 0.89774 8.39886 1.02832 8.72168C1.16253 9.04088 1.34026 9.3351 1.56152 9.60352C1.78636 9.86819 2.03343 10.0797 2.30176 10.2393C2.57017 10.3988 2.84027 10.4795 3.1123 10.4795C3.43507 10.4795 3.71446 10.3595 3.9502 10.1201C4.18958 9.88436 4.41114 9.53805 4.61426 9.08105C4.77884 8.71434 4.94634 8.28254 5.12012 7.78711C5.01325 7.74686 4.90938 7.69786 4.80957 7.63867C4.56209 7.49187 4.35506 7.30484 4.1875 7.07812H1.54492ZM5.84863 4.62988C5.62394 4.62993 5.41923 4.68651 5.23438 4.79883C5.04947 4.90759 4.90051 5.05439 4.78809 5.23926C4.67927 5.42425 4.625 5.6296 4.625 5.85449C4.62502 6.07922 4.67939 6.28386 4.78809 6.46875C4.90053 6.65374 5.04939 6.80259 5.23438 6.91504C5.41927 7.02378 5.62389 7.07808 5.84863 7.07812C6.07352 7.07812 6.27888 7.02386 6.46387 6.91504C6.64875 6.80261 6.79552 6.65366 6.9043 6.46875C7.01662 6.28386 7.07322 6.07923 7.07324 5.85449C7.07324 5.6296 7.01674 5.42425 6.9043 5.23926C6.79552 5.05443 6.64872 4.90759 6.46387 4.79883C6.27888 4.68638 6.07352 4.62988 5.84863 4.62988ZM5.84863 5.07617C6.06261 5.07617 6.24611 5.15239 6.39844 5.30469C6.55078 5.45703 6.62695 5.64049 6.62695 5.85449C6.62692 6.06844 6.55075 6.25199 6.39844 6.4043C6.24614 6.5565 6.06254 6.63281 5.84863 6.63281C5.63494 6.63275 5.452 6.5563 5.2998 6.4043C5.14749 6.25199 5.07132 6.06844 5.07129 5.85449C5.07129 5.64049 5.14746 5.45703 5.2998 5.30469C5.45203 5.1526 5.63488 5.07624 5.84863 5.07617ZM3.9502 0.832031C3.63103 0.832031 3.3101 0.899997 2.9873 1.03418C2.66448 1.16839 2.37026 1.34612 2.10547 1.56738C1.84092 1.78849 1.62701 2.03483 1.46387 2.30664C1.30435 2.57492 1.22469 2.84529 1.22461 3.11719C1.22461 3.44001 1.34235 3.72154 1.57812 3.96094C1.81748 4.19661 2.16525 4.41832 2.62207 4.625C2.98877 4.78669 3.42061 4.95279 3.91602 5.12598C3.95628 5.01901 4.00522 4.91533 4.06445 4.81543C4.21121 4.56796 4.39834 4.36093 4.625 4.19336V1.55566C4.62495 1.28385 4.57542 1.09537 4.47754 0.990234C4.3796 0.885157 4.20391 0.832051 3.9502 0.832031Z" fill="black"/>
</g>
<defs>
<clipPath id="clip0_16_226">
<rect width="12" height="12" fill="white"/>
</clipPath>
</defs>
</svg>
