<svg width="12" height="12" viewBox="0 0 12 12" fill="none" xmlns="http://www.w3.org/2000/svg">
<g clip-path="url(#clip0_16_252)">
<rect width="12" height="12" fill="white"/>
<path d="M-0.00292969 7.75586C-0.00290398 7.26997 0.131121 6.89813 0.399414 6.64062C0.667754 6.37954 1.05238 6.2491 1.55273 6.24902H3.82422C3.80888 6.16561 3.79818 6.08035 3.79297 5.99316C3.11083 5.7641 2.5235 5.52601 2.03223 5.27539C1.49914 4.99978 1.09277 4.68923 0.813477 4.34473C0.530552 3.99651 0.388672 3.58803 0.388672 3.12012C0.388722 2.73573 0.492517 2.35817 0.699219 1.98828C0.902319 1.61848 1.17606 1.28462 1.52051 0.987305C1.86143 0.686302 2.24462 0.447242 2.66895 0.269531C3.08947 0.0919398 3.51713 0.00298661 3.95215 0.00292969C4.4382 0.00292969 4.81083 0.136858 5.06836 0.405273C5.3258 0.670056 5.4541 1.05324 5.4541 1.55371V3.83105C5.53843 3.81531 5.6247 3.80518 5.71289 3.7998C5.94285 3.11812 6.18471 2.53083 6.43945 2.03809C6.7114 1.50507 7.02108 1.09862 7.36914 0.819336C7.71366 0.536468 8.1201 0.394587 8.58789 0.394531C8.976 0.394531 9.35561 0.498326 9.72559 0.705078C10.0918 0.90817 10.4234 1.18193 10.7207 1.52637C11.0217 1.86726 11.2617 2.24954 11.4395 2.67383C11.6171 3.0945 11.706 3.52284 11.7061 3.95801C11.7061 4.44406 11.5711 4.81571 11.3027 5.07324C11.038 5.33075 10.6558 5.45994 10.1553 5.45996H7.87598C7.89181 5.5447 7.90383 5.63109 7.90918 5.71973C8.59056 5.94961 9.17833 6.18969 9.6709 6.44434C10.2041 6.71636 10.6104 7.02682 10.8896 7.375C11.1725 7.71955 11.3144 8.1259 11.3145 8.59375C11.3145 8.97824 11.2107 9.35561 11.0039 9.72559C10.8008 10.0955 10.5271 10.4292 10.1826 10.7266C9.84172 11.0239 9.4607 11.2617 9.04004 11.4395C8.61565 11.6172 8.18527 11.7061 7.75 11.7061C7.26409 11.706 6.89225 11.5733 6.63477 11.3086C6.37379 11.0402 6.24321 10.6578 6.24316 10.1611V7.88379C6.16002 7.89908 6.07517 7.91079 5.98828 7.91602C5.75874 8.59697 5.52071 9.18444 5.26953 9.67676C4.99386 10.2063 4.68345 10.6126 4.33887 10.8955C3.99067 11.1748 3.58214 11.3145 3.11426 11.3145C2.73005 11.3144 2.35312 11.2127 1.9834 11.0098C1.61343 10.803 1.27887 10.5294 0.981445 10.1885C0.68047 9.84761 0.441391 9.46652 0.263672 9.0459C0.0859375 8.62151 -0.00292969 8.19113 -0.00292969 7.75586ZM6.5791 3.9248C6.68623 3.9651 6.79059 4.01295 6.89063 4.07227C7.13604 4.21781 7.34097 4.40381 7.50781 4.62793H10.1553C10.4234 4.62791 10.6084 4.58049 10.71 4.48633C10.8152 4.38839 10.8682 4.21191 10.8682 3.95801C10.8717 3.63528 10.806 3.31422 10.6719 2.99512C10.5377 2.67243 10.3598 2.37895 10.1387 2.11426C9.91741 1.84584 9.67271 1.63128 9.4043 1.47168C9.13227 1.30848 8.85991 1.22656 8.58789 1.22656C8.26518 1.22663 7.9857 1.34661 7.75 1.58594C7.51064 1.8217 7.29001 2.17027 7.08691 2.63086C6.92225 2.99775 6.75297 3.42907 6.5791 3.9248ZM7.0752 10.1611C7.07523 10.4294 7.12475 10.6165 7.22266 10.7217C7.32061 10.823 7.49648 10.874 7.75 10.874C8.07282 10.874 8.39593 10.8083 8.71875 10.6777C9.03795 10.5435 9.33217 10.3658 9.60059 10.1445C9.86526 9.9197 10.0768 9.67263 10.2363 9.4043C10.3959 9.13589 10.4766 8.86578 10.4766 8.59375C10.4765 8.27099 10.3565 7.9916 10.1172 7.75586C9.88143 7.51648 9.53512 7.29491 9.07812 7.0918C8.71141 6.92721 8.27961 6.75972 7.78418 6.58594C7.74393 6.69281 7.69493 6.79667 7.63574 6.89648C7.48894 7.14396 7.30191 7.351 7.0752 7.51855V10.1611ZM4.62695 5.85742C4.627 6.08212 4.68358 6.28682 4.7959 6.47168C4.90466 6.65658 5.05146 6.80554 5.23633 6.91797C5.42132 7.02679 5.62667 7.08105 5.85156 7.08105C6.07629 7.08103 6.28094 7.02667 6.46582 6.91797C6.65081 6.80552 6.79967 6.65667 6.91211 6.47168C7.02085 6.28679 7.07515 6.08217 7.0752 5.85742C7.0752 5.63253 7.02093 5.42718 6.91211 5.24219C6.79968 5.05731 6.65073 4.91053 6.46582 4.80176C6.28093 4.68944 6.0763 4.63284 5.85156 4.63281C5.62667 4.63281 5.42132 4.68931 5.23633 4.80176C5.0515 4.91054 4.90466 5.05734 4.7959 5.24219C4.68345 5.42718 4.62695 5.63253 4.62695 5.85742ZM5.07324 5.85742C5.07324 5.64345 5.14946 5.45995 5.30176 5.30762C5.4541 5.15527 5.63756 5.0791 5.85156 5.0791C6.06551 5.07913 6.24906 5.15531 6.40137 5.30762C6.55357 5.45992 6.62988 5.64351 6.62988 5.85742C6.62982 6.07111 6.55337 6.25406 6.40137 6.40625C6.24906 6.55856 6.06551 6.63473 5.85156 6.63477C5.63756 6.63477 5.4541 6.55859 5.30176 6.40625C5.14967 6.25403 5.07331 6.07118 5.07324 5.85742ZM0.829102 7.75586C0.829102 8.07503 0.897067 8.39596 1.03125 8.71875C1.16546 9.04157 1.34319 9.3358 1.56445 9.60059C1.78556 9.86513 2.0319 10.079 2.30371 10.2422C2.57199 10.4017 2.84236 10.4814 3.11426 10.4814C3.43708 10.4814 3.71861 10.3637 3.95801 10.1279C4.19368 9.88858 4.41539 9.54081 4.62207 9.08398C4.78376 8.71729 4.94986 8.28545 5.12305 7.79004C5.01608 7.74978 4.9124 7.70083 4.8125 7.6416C4.56503 7.49485 4.358 7.30771 4.19043 7.08105H1.55273C1.28092 7.0811 1.09244 7.13063 0.987305 7.22852C0.882227 7.32646 0.829121 7.50214 0.829102 7.75586Z" fill="black"/>
</g>
<defs>
<clipPath id="clip0_16_252">
<rect width="12" height="12" fill="white"/>
</clipPath>
</defs>
</svg>
