<svg width="12" height="12" viewBox="0 0 12 12" fill="none" xmlns="http://www.w3.org/2000/svg">
<g clip-path="url(#clip0_16_234)">
<rect width="12" height="12" fill="white"/>
<path d="M3.94461 5.97949C3.19015 5.69657 2.54813 5.42271 2.01855 5.15792C1.48898 4.88951 1.08454 4.59208 0.805246 4.26562C0.525949 3.93555 0.3863 3.54018 0.3863 3.07952C0.3863 2.70591 0.486049 2.33775 0.685547 1.97503C0.885045 1.60868 1.15346 1.27679 1.49079 0.979353C1.83175 0.68192 2.2108 0.444336 2.62793 0.266602C3.04869 0.0888672 3.4767 0 3.91197 0C4.39439 0 4.75893 0.128767 5.00558 0.3863C5.25586 0.643834 5.381 1.02107 5.381 1.518V3.94461C5.10896 4.25293 4.85324 4.57757 4.61384 4.91853C4.37807 5.25586 4.15499 5.60951 3.94461 5.97949ZM5.65304 3.94461C5.93234 3.19015 6.20619 2.54813 6.47461 2.01855C6.74302 1.48898 7.04046 1.08454 7.36691 0.805246C7.69336 0.525949 8.08873 0.3863 8.55301 0.3863C8.92662 0.3863 9.29478 0.486049 9.65751 0.685547C10.0239 0.885045 10.3557 1.15527 10.6532 1.49623C10.9506 1.83357 11.1882 2.21261 11.3659 2.63337C11.5437 3.0505 11.6325 3.4767 11.6325 3.91197C11.6325 4.39439 11.5038 4.76074 11.2462 5.01102C10.9887 5.25767 10.6115 5.381 10.1145 5.381H7.68792C7.3796 5.10896 7.05497 4.85505 6.71401 4.61928C6.37305 4.37988 6.01939 4.15499 5.65304 3.94461ZM7.68792 5.65304C8.44238 5.93234 9.0844 6.20619 9.61398 6.47461C10.1436 6.74302 10.548 7.04046 10.8273 7.36691C11.1066 7.69336 11.2462 8.08873 11.2462 8.55301C11.2462 8.92662 11.1447 9.2966 10.9415 9.66295C10.742 10.0257 10.4736 10.3557 10.1363 10.6532C9.79897 10.9506 9.41992 11.1882 8.99916 11.3659C8.58203 11.5437 8.15402 11.6325 7.71512 11.6325C7.23633 11.6325 6.87179 11.5038 6.62151 11.2462C6.37486 10.9887 6.25153 10.6115 6.25153 10.1145V7.68792C6.51995 7.3796 6.77386 7.05497 7.01325 6.71401C7.25265 6.37305 7.47754 6.01939 7.68792 5.65304ZM5.97949 7.68792C5.69657 8.44238 5.4209 9.0844 5.15248 9.61398C4.8877 10.1436 4.59026 10.548 4.26018 10.8273C3.93373 11.1066 3.54018 11.2462 3.07952 11.2462C2.70591 11.2462 2.33594 11.1447 1.96959 10.9415C1.60686 10.742 1.27679 10.4736 0.979353 10.1363C0.68192 9.79897 0.444336 9.42174 0.266602 9.0046C0.0888672 8.58384 0 8.15402 0 7.71512C0 7.23633 0.128767 6.8736 0.3863 6.62695C0.643834 6.37667 1.01925 6.25153 1.51256 6.25153H3.94461C4.25293 6.51995 4.57575 6.77386 4.91309 7.01325C5.25405 7.25265 5.60951 7.47754 5.97949 7.68792ZM5.81627 7.8457C5.44266 7.8457 5.1017 7.75502 4.79339 7.57366C4.48507 7.38867 4.24023 7.14383 4.05887 6.83915C3.87751 6.53083 3.78683 6.18987 3.78683 5.81627C3.78683 5.44266 3.87751 5.1017 4.05887 4.79339C4.24023 4.48507 4.48507 4.24023 4.79339 4.05887C5.1017 3.87751 5.44266 3.78683 5.81627 3.78683C6.18987 3.78683 6.52902 3.87751 6.8337 4.05887C7.14202 4.24023 7.38686 4.48507 7.56822 4.79339C7.75321 5.1017 7.8457 5.44266 7.8457 5.81627C7.8457 6.18987 7.75321 6.53083 7.56822 6.83915C7.38686 7.14383 7.14202 7.38867 6.8337 7.57366C6.52902 7.75502 6.18987 7.8457 5.81627 7.8457ZM5.81627 7.07854C6.04841 7.07854 6.25879 7.02232 6.4474 6.90988C6.63965 6.79381 6.79199 6.64146 6.90444 6.45285C7.02051 6.2606 7.07854 6.04841 7.07854 5.81627C7.07854 5.58412 7.02051 5.37193 6.90444 5.17969C6.79199 4.98744 6.63965 4.8351 6.4474 4.72266C6.25879 4.61021 6.04841 4.55399 5.81627 4.55399C5.58412 4.55399 5.37193 4.61021 5.17969 4.72266C4.98744 4.8351 4.8351 4.98744 4.72266 5.17969C4.61021 5.37193 4.55399 5.58412 4.55399 5.81627C4.55399 6.04841 4.61021 6.2606 4.72266 6.45285C4.8351 6.64146 4.98744 6.79381 5.17969 6.90988C5.37193 7.02232 5.58412 7.07854 5.81627 7.07854ZM5.81627 6.56166C5.60951 6.56166 5.43359 6.48912 5.2885 6.34403C5.14341 6.19894 5.07087 6.02302 5.07087 5.81627C5.07087 5.60951 5.14341 5.43359 5.2885 5.2885C5.43359 5.14341 5.60951 5.07087 5.81627 5.07087C6.02302 5.07087 6.19713 5.14341 6.33859 5.2885C6.48368 5.43359 6.55622 5.60951 6.55622 5.81627C6.55622 6.02302 6.48368 6.19894 6.33859 6.34403C6.19713 6.48912 6.02302 6.56166 5.81627 6.56166Z" fill="black"/>
</g>
<defs>
<clipPath id="clip0_16_234">
<rect width="12" height="12" fill="white"/>
</clipPath>
</defs>
</svg>
