<svg width="25" height="25" viewBox="0 0 25 25" fill="none" xmlns="http://www.w3.org/2000/svg">
<rect width="25" height="25" fill="white"/>
<path d="M7.28237 13.0391C5.88951 12.5167 4.70424 12.0112 3.72656 11.5223C2.74888 11.0268 2.00223 10.4777 1.48661 9.875C0.970982 9.26562 0.71317 8.53571 0.71317 7.68527C0.71317 6.99554 0.897321 6.31585 1.26562 5.64621C1.63393 4.96987 2.12946 4.35714 2.75223 3.80804C3.3817 3.25893 4.08147 2.82031 4.85156 2.49219C5.62835 2.16406 6.41853 2 7.2221 2C8.11272 2 8.78571 2.23772 9.24107 2.71317C9.70312 3.18862 9.93415 3.88504 9.93415 4.80246V9.28237C9.43192 9.85156 8.95982 10.4509 8.51786 11.0804C8.08259 11.7031 7.67076 12.356 7.28237 13.0391ZM10.4364 9.28237C10.952 7.88951 11.4576 6.70424 11.9531 5.72656C12.4487 4.74888 12.9978 4.00223 13.6004 3.48661C14.2031 2.97098 14.933 2.71317 15.7902 2.71317C16.4799 2.71317 17.1596 2.89732 17.8292 3.26562C18.5056 3.63393 19.1183 4.13281 19.6674 4.76228C20.2165 5.38504 20.6551 6.08482 20.9833 6.86161C21.3114 7.6317 21.4754 8.41853 21.4754 9.2221C21.4754 10.1127 21.2377 10.7891 20.7623 11.2511C20.2868 11.7065 19.5904 11.9342 18.673 11.9342H14.1931C13.6239 11.4319 13.0246 10.9632 12.3951 10.5279C11.7656 10.0859 11.1127 9.67076 10.4364 9.28237ZM14.1931 12.4364C15.5859 12.952 16.7712 13.4576 17.7489 13.9531C18.7266 14.4487 19.4732 14.9978 19.9888 15.6004C20.5045 16.2031 20.7623 16.933 20.7623 17.7902C20.7623 18.4799 20.5748 19.1629 20.1998 19.8393C19.8315 20.5089 19.3359 21.1183 18.7132 21.6674C18.0904 22.2165 17.3906 22.6551 16.6138 22.9833C15.8437 23.3114 15.0536 23.4754 14.2433 23.4754C13.3594 23.4754 12.6864 23.2377 12.2243 22.7623C11.769 22.2868 11.5413 21.5904 11.5413 20.673V16.1931C12.0368 15.6239 12.5056 15.0246 12.9475 14.3951C13.3895 13.7656 13.8047 13.1127 14.1931 12.4364ZM11.0391 16.1931C10.5167 17.5859 10.0078 18.7712 9.51228 19.7489C9.02344 20.7266 8.47433 21.4732 7.86495 21.9888C7.26228 22.5045 6.53571 22.7623 5.68527 22.7623C4.99554 22.7623 4.3125 22.5748 3.63616 22.1998C2.96652 21.8315 2.35714 21.3359 1.80804 20.7132C1.25893 20.0904 0.820312 19.394 0.492188 18.6239C0.164062 17.8471 0 17.0536 0 16.2433C0 15.3594 0.237723 14.6897 0.71317 14.2344C1.18862 13.7723 1.8817 13.5413 2.79241 13.5413H7.28237C7.85156 14.0368 8.44754 14.5056 9.07031 14.9475C9.69978 15.3895 10.356 15.8047 11.0391 16.1931ZM10.7377 16.4844C10.048 16.4844 9.41853 16.317 8.84933 15.9821C8.28013 15.6406 7.82812 15.1886 7.4933 14.6261C7.15848 14.0569 6.99107 13.4275 6.99107 12.7377C6.99107 12.048 7.15848 11.4185 7.4933 10.8493C7.82812 10.2801 8.28013 9.82812 8.84933 9.4933C9.41853 9.15848 10.048 8.99107 10.7377 8.99107C11.4275 8.99107 12.0536 9.15848 12.6161 9.4933C13.1853 9.82812 13.6373 10.2801 13.9721 10.8493C14.3136 11.4185 14.4844 12.048 14.4844 12.7377C14.4844 13.4275 14.3136 14.0569 13.9721 14.6261C13.6373 15.1886 13.1853 15.6406 12.6161 15.9821C12.0536 16.317 11.4275 16.4844 10.7377 16.4844ZM10.7377 15.0681C11.1663 15.0681 11.5547 14.9643 11.9029 14.7567C12.2578 14.5424 12.5391 14.2612 12.7467 13.9129C12.9609 13.558 13.0681 13.1663 13.0681 12.7377C13.0681 12.3092 12.9609 11.9174 12.7467 11.5625C12.5391 11.2076 12.2578 10.9263 11.9029 10.7188C11.5547 10.5112 11.1663 10.4074 10.7377 10.4074C10.3092 10.4074 9.91741 10.5112 9.5625 10.7188C9.20759 10.9263 8.92634 11.2076 8.71875 11.5625C8.51116 11.9174 8.40737 12.3092 8.40737 12.7377C8.40737 13.1663 8.51116 13.558 8.71875 13.9129C8.92634 14.2612 9.20759 14.5424 9.5625 14.7567C9.91741 14.9643 10.3092 15.0681 10.7377 15.0681ZM10.7377 14.1138C10.356 14.1138 10.0312 13.9799 9.76339 13.7121C9.49554 13.4442 9.36161 13.1194 9.36161 12.7377C9.36161 12.356 9.49554 12.0312 9.76339 11.7634C10.0312 11.4955 10.356 11.3616 10.7377 11.3616C11.1194 11.3616 11.4408 11.4955 11.702 11.7634C11.9699 12.0312 12.1038 12.356 12.1038 12.7377C12.1038 13.1194 11.9699 13.4442 11.702 13.7121C11.4408 13.9799 11.1194 14.1138 10.7377 14.1138Z" fill="black"/>
</svg>
