<svg width="40" height="40" viewBox="0 0 40 40" fill="none" xmlns="http://www.w3.org/2000/svg">
<g clip-path="url(#clip0_16_290)">
<rect width="40" height="40" fill="black"/>
<path d="M20 0C14.6957 0 9.60861 2.10714 5.85788 5.85786C2.10715 9.60859 1.52588e-05 14.6957 1.52588e-05 20C1.52588e-05 25.3043 2.10715 30.3914 5.85788 34.1421C9.60861 37.8929 14.6957 40 20 40C25.3043 40 30.3914 37.8929 34.1422 34.1421C37.8929 30.3914 40 25.3043 40 20C40 14.6957 37.8929 9.60859 34.1422 5.85786C30.3914 2.10714 25.3043 0 20 0ZM6.87502 7.8125H10.625V24.6875C10.625 26.7808 12.2817 28.4375 14.375 28.4375H25.625C27.7183 28.4375 29.375 26.7808 29.375 24.6875V15.3125C29.375 14.2548 28.5578 13.4375 27.5 13.4375C26.4423 13.4375 25.625 14.2548 25.625 15.3125V24.6875H21.875V15.3125C21.875 14.2548 21.0578 13.4375 20 13.4375C18.9423 13.4375 18.125 14.2548 18.125 15.3125V24.6875H14.375V15.3125C14.375 12.2281 16.9156 9.6875 20 9.6875C21.4409 9.6875 22.75 10.2571 23.75 11.1624C24.75 10.2571 26.0591 9.6875 27.5 9.6875C30.5844 9.6875 33.125 12.2281 33.125 15.3125V24.6875C33.125 28.8074 29.7449 32.1875 25.625 32.1875H14.375C10.2551 32.1875 6.87502 28.8074 6.87502 24.6875V7.8125Z" fill="white"/>
</g>
<defs>
<clipPath id="clip0_16_290">
<rect width="40" height="40" fill="white"/>
</clipPath>
</defs>
</svg>
