<svg width="25" height="25" viewBox="0 0 25 25" fill="none" xmlns="http://www.w3.org/2000/svg">
<rect width="25" height="25" fill="white"/>
<path d="M9.28053 23.6773C7.97034 23.6773 6.75113 23.437 5.62291 22.9566C4.49469 22.4762 3.5084 21.8102 2.66406 20.9586C1.82699 20.0997 1.17189 19.1098 0.69877 17.9888C0.232923 16.8679 0 15.6632 0 14.3749C0 13.1084 0.232923 11.911 0.69877 10.7828C1.17189 9.65455 1.82699 8.65735 2.66406 7.79117C3.50113 6.92498 4.48013 6.24805 5.60107 5.76037C6.03053 5.5784 6.33988 5.60751 6.52913 5.84771C6.7111 6.06608 6.70746 6.36815 6.51821 6.75393C6.33624 7.12515 6.1761 7.62739 6.0378 8.26065C5.90679 8.89391 5.84128 9.51625 5.84128 10.1277C5.84128 11.7217 6.16882 13.1047 6.82392 14.2766C7.4863 15.4485 8.41799 16.3547 9.619 16.9953C10.82 17.6358 12.2321 17.9561 13.8553 17.9561C14.4376 17.9561 14.9835 17.9124 15.493 17.8251C16.0025 17.7377 16.4793 17.6031 16.9233 17.4211C17.2654 17.2973 17.5238 17.3192 17.6985 17.4866C17.9169 17.705 17.9387 18.007 17.764 18.3928C17.2836 19.4264 16.6249 20.3399 15.7878 21.1333C14.958 21.9267 13.9899 22.549 12.8836 23.0003C11.7772 23.4516 10.5762 23.6773 9.28053 23.6773ZM17.6439 13.698C17.542 13.698 17.4583 13.6652 17.3928 13.5997C17.3273 13.5342 17.2873 13.4541 17.2727 13.3595C17.1781 12.6316 17.0798 12.0639 16.9779 11.6562C16.8833 11.2486 16.7268 10.9429 16.5084 10.7391C16.2973 10.5353 15.9771 10.3752 15.5476 10.2587C15.1182 10.1422 14.5249 10.0112 13.7679 9.86564C13.5496 9.82924 13.4404 9.70914 13.4404 9.50533C13.4404 9.40343 13.4695 9.31972 13.5277 9.25421C13.5932 9.18143 13.6733 9.14139 13.7679 9.13411C14.5249 9.02493 15.1182 8.91939 15.5476 8.81748C15.9771 8.71558 16.2973 8.55908 16.5084 8.348C16.7268 8.12963 16.8833 7.80936 16.9779 7.38719C17.0798 6.96502 17.1781 6.38635 17.2727 5.65118C17.3018 5.41826 17.4256 5.3018 17.6439 5.3018C17.8623 5.3018 17.986 5.4219 18.0152 5.6621C18.1025 6.38999 18.1971 6.95774 18.299 7.36535C18.4009 7.77297 18.5611 8.07868 18.7794 8.28249C18.9978 8.4863 19.3217 8.64279 19.7512 8.75197C20.1879 8.86116 20.7775 8.98854 21.5199 9.13411C21.7383 9.17779 21.8475 9.30153 21.8475 9.50533C21.8475 9.70914 21.7237 9.82924 21.4762 9.86564C20.7338 9.98938 20.1515 10.1058 19.7293 10.215C19.3071 10.3242 18.9869 10.4843 18.7685 10.6954C18.5574 10.8992 18.4009 11.2086 18.299 11.6235C18.1971 12.0384 18.1025 12.6098 18.0152 13.3376C17.986 13.5779 17.8623 13.698 17.6439 13.698ZM12.425 6.30628C12.3013 6.30628 12.2248 6.24077 12.1957 6.10975C12.1084 5.65118 12.0319 5.29452 11.9664 5.03976C11.9009 4.785 11.8027 4.59211 11.6716 4.46109C11.5406 4.32279 11.3441 4.21725 11.082 4.14446C10.82 4.0644 10.4524 3.97705 9.9793 3.88242C9.841 3.85331 9.77185 3.77688 9.77185 3.65314C9.77185 3.5294 9.841 3.45297 9.9793 3.42386C10.4524 3.32923 10.8164 3.24189 11.0711 3.16182C11.3332 3.08175 11.5261 2.97621 11.6498 2.84519C11.7808 2.71417 11.8791 2.52128 11.9446 2.26652C12.0174 2.00448 12.1011 1.64782 12.1957 1.19653C12.2248 1.06551 12.3013 1 12.425 1C12.5487 1 12.6215 1.06551 12.6434 1.19653C12.7453 1.64782 12.829 2.00448 12.8945 2.26652C12.9673 2.52128 13.0655 2.71417 13.1893 2.84519C13.3203 2.97621 13.5132 3.08175 13.7679 3.16182C14.03 3.24189 14.3976 3.32923 14.8707 3.42386C15.009 3.45297 15.0781 3.5294 15.0781 3.65314C15.0781 3.77688 15.009 3.85331 14.8707 3.88242C14.3976 3.97705 14.0263 4.06076 13.757 4.13354C13.495 4.20633 13.2985 4.31188 13.1674 4.45017C13.0437 4.58119 12.9454 4.77772 12.8726 5.03976C12.8071 5.29452 12.7307 5.65118 12.6434 6.10975C12.6215 6.24077 12.5487 6.30628 12.425 6.30628Z" fill="black"/>
</svg>
