<svg width="25" height="25" viewBox="0 0 25 25" fill="none" xmlns="http://www.w3.org/2000/svg">
<g clip-path="url(#clip0_16_306)">
<rect width="25" height="25" fill="white"/>
<path d="M5.13159 16.5412C4.04704 16.5412 3.12263 16.3337 2.35835 15.9188C1.59407 15.4967 1.00812 14.9326 0.600505 14.2265C0.200168 13.5132 0 12.7271 0 11.8682C0 11.0966 0.152856 10.4015 0.458568 9.78277C0.764279 9.16407 1.17917 8.63999 1.70325 8.21054C2.22733 7.77381 2.82055 7.46082 3.48293 7.27157C3.57027 6.25981 3.83231 5.31356 4.26904 4.43282C4.71305 3.55208 5.29172 2.78052 6.00505 2.11814C6.71838 1.45577 7.52633 0.938971 8.42891 0.56775C9.33876 0.18925 10.3068 0 11.3332 0C12.3886 0 13.364 0.181971 14.2593 0.545914C15.1546 0.909856 15.9516 1.42665 16.6504 2.09631C17.3564 2.75868 17.9351 3.53752 18.3864 4.43282C19.3108 4.43282 20.1697 4.58204 20.9631 4.88047C21.7565 5.1789 22.448 5.60107 23.0376 6.14699C23.6344 6.68562 24.0966 7.32252 24.4242 8.05768C24.759 8.78557 24.9264 9.58624 24.9264 10.4597C24.9264 11.2968 24.7699 12.0829 24.4569 12.8181C24.1512 13.5532 23.7145 14.201 23.1467 14.7615C22.5863 15.322 21.9239 15.7587 21.1596 16.0717C20.4026 16.3847 19.5765 16.5412 18.6812 16.5412H5.13159ZM5.41546 21.6509C5.32812 21.8111 5.1971 21.913 5.02241 21.9566C4.84771 22.0076 4.6803 21.9894 4.52016 21.9021C4.34547 21.8074 4.23629 21.6728 4.19262 21.4981C4.14894 21.3307 4.17442 21.1705 4.26904 21.0177L5.69934 18.5283C5.80124 18.3609 5.9359 18.2554 6.10331 18.2117C6.27073 18.1607 6.43814 18.1826 6.60556 18.2772C6.76569 18.3718 6.86759 18.5065 6.91127 18.6812C6.96222 18.8486 6.93674 19.016 6.83484 19.1834L5.41546 21.6509ZM8.83288 24.719C8.73826 24.8864 8.6036 24.9919 8.42891 25.0356C8.26149 25.0866 8.09408 25.0647 7.92667 24.9701C7.75925 24.8755 7.65371 24.7444 7.61004 24.577C7.56636 24.4096 7.59184 24.2458 7.68646 24.0857L9.11676 21.6073C9.21866 21.4398 9.35332 21.3307 9.52073 21.2797C9.68815 21.236 9.85556 21.2615 10.023 21.3561C10.1831 21.4508 10.285 21.5818 10.3287 21.7492C10.3796 21.9239 10.3542 22.0949 10.2523 22.2624L8.83288 24.719ZM14.1064 21.64C14.0118 21.8002 13.8771 21.9021 13.7024 21.9457C13.5277 21.9967 13.3603 21.9785 13.2002 21.8911C13.0328 21.7965 12.9272 21.6619 12.8836 21.4872C12.8399 21.3197 12.8654 21.1596 12.96 21.0068L14.3903 18.5174C14.4849 18.35 14.6159 18.2444 14.7833 18.2008C14.958 18.1498 15.1254 18.1716 15.2856 18.2663C15.453 18.3609 15.5585 18.4956 15.6022 18.6702C15.6532 18.8377 15.6277 19.0051 15.5258 19.1725L14.1064 21.64ZM17.5238 24.708C17.4292 24.8755 17.2945 24.981 17.1199 25.0247C16.9452 25.0756 16.7777 25.0538 16.6176 24.9592C16.4502 24.8645 16.3447 24.7335 16.301 24.5661C16.2573 24.3987 16.2791 24.2349 16.3665 24.0748L17.8077 21.5963C17.9023 21.4289 18.0333 21.3197 18.2008 21.2688C18.3682 21.2251 18.5356 21.2506 18.703 21.3452C18.8704 21.4398 18.976 21.5709 19.0196 21.7383C19.0633 21.913 19.0378 22.084 18.9432 22.2514L17.5238 24.708Z" fill="black"/>
</g>
<defs>
<clipPath id="clip0_16_306">
<rect width="25" height="25" fill="white"/>
</clipPath>
</defs>
</svg>
