<svg width="25" height="25" viewBox="0 0 25 25" fill="none" xmlns="http://www.w3.org/2000/svg">
<rect width="25" height="25" fill="white"/>
<path d="M11.8136 5.24721C11.5515 5.24721 11.3259 5.15622 11.1366 4.97425C10.9547 4.785 10.8637 4.55936 10.8637 4.29732V1.94989C10.8637 1.68785 10.9547 1.46585 11.1366 1.28388C11.3259 1.09463 11.5515 1 11.8136 1C12.0683 1 12.2867 1.09463 12.4687 1.28388C12.6579 1.46585 12.7525 1.68785 12.7525 1.94989V4.29732C12.7525 4.55936 12.6579 4.785 12.4687 4.97425C12.2867 5.15622 12.0683 5.24721 11.8136 5.24721ZM17.1635 7.48545C16.9816 7.30348 16.8906 7.08148 16.8906 6.81944C16.8906 6.5574 16.9816 6.3354 17.1635 6.15342L18.8449 4.47201C19.0269 4.29004 19.2489 4.19905 19.511 4.19905C19.773 4.19905 19.995 4.29004 20.177 4.47201C20.3589 4.65398 20.4499 4.87963 20.4499 5.14894C20.4499 5.41098 20.3589 5.63299 20.177 5.81496L18.5065 7.48545C18.3245 7.6747 18.0989 7.76933 17.8295 7.76933C17.5675 7.76205 17.3455 7.66743 17.1635 7.48545ZM19.3799 12.8463C19.3799 12.5843 19.4709 12.3623 19.6529 12.1803C19.8421 11.9911 20.0678 11.8964 20.3298 11.8964H22.6773C22.932 11.8964 23.1504 11.9911 23.3323 12.1803C23.5216 12.3623 23.6162 12.5843 23.6162 12.8463C23.6162 13.1011 23.5216 13.3231 23.3323 13.5123C23.1504 13.6943 22.932 13.7853 22.6773 13.7853H20.3298C20.0678 13.7853 19.8421 13.6943 19.6529 13.5123C19.4709 13.3231 19.3799 13.1011 19.3799 12.8463ZM17.1635 18.2072C17.3455 18.0325 17.5675 17.9452 17.8295 17.9452C18.0916 17.9452 18.3136 18.0325 18.4956 18.2072L20.177 19.8886C20.3589 20.0633 20.4499 20.2817 20.4499 20.5437C20.4499 20.8057 20.3589 21.0314 20.177 21.2206C19.995 21.3953 19.773 21.4827 19.511 21.4827C19.2489 21.49 19.0269 21.4063 18.8449 21.2316L17.1635 19.5392C16.9816 19.3645 16.8906 19.1462 16.8906 18.8841C16.8906 18.6221 16.9816 18.3964 17.1635 18.2072ZM11.8136 20.4454C12.0683 20.4454 12.2867 20.5401 12.4687 20.7293C12.6579 20.9113 12.7525 21.1297 12.7525 21.3844V23.7428C12.7525 23.9975 12.6579 24.2159 12.4687 24.3979C12.2867 24.5871 12.0683 24.6817 11.8136 24.6817C11.5515 24.6817 11.3259 24.5871 11.1366 24.3979C10.9547 24.2159 10.8637 23.9975 10.8637 23.7428V21.3844C10.8637 21.1297 10.9547 20.9113 11.1366 20.7293C11.3259 20.5401 11.5515 20.4454 11.8136 20.4454ZM6.4527 18.2072C6.62739 18.3964 6.71474 18.6221 6.71474 18.8841C6.71474 19.1462 6.62375 19.3645 6.44178 19.5392L4.77129 21.2206C4.58931 21.3953 4.36367 21.479 4.09435 21.4718C3.83231 21.4718 3.61031 21.3844 3.42834 21.2097C3.25365 21.0205 3.1663 20.7948 3.1663 20.5328C3.1663 20.2708 3.25728 20.0524 3.43926 19.8777L5.10975 18.2072C5.29172 18.0325 5.51373 17.9452 5.77577 17.9452C6.04508 17.9452 6.27073 18.0325 6.4527 18.2072ZM4.23629 12.8463C4.23629 13.1011 4.14166 13.3231 3.95241 13.5123C3.77044 13.6943 3.54844 13.7853 3.2864 13.7853H0.938971C0.684212 13.7853 0.462207 13.6943 0.272957 13.5123C0.0909855 13.3231 0 13.1011 0 12.8463C0 12.5843 0.0909855 12.3623 0.272957 12.1803C0.462207 11.9911 0.684212 11.8964 0.938971 11.8964H3.2864C3.54844 11.8964 3.77044 11.9911 3.95241 12.1803C4.14166 12.3623 4.23629 12.5843 4.23629 12.8463ZM6.44178 7.48545C6.25981 7.66743 6.0378 7.75841 5.77577 7.75841C5.51373 7.75841 5.29172 7.66743 5.10975 7.48545L3.43926 5.80404C3.26456 5.62935 3.17722 5.41098 3.17722 5.14894C3.17722 4.87963 3.2682 4.65398 3.45017 4.47201C3.63215 4.29004 3.85415 4.20269 4.11619 4.20997C4.38551 4.20997 4.60751 4.29732 4.7822 4.47201L6.4527 6.15342C6.62739 6.32812 6.71474 6.55012 6.71474 6.81944C6.71474 7.08876 6.62375 7.31076 6.44178 7.48545ZM11.8027 18.4037C11.0384 18.4037 10.3178 18.2618 9.64083 17.9779C8.97118 17.6868 8.38159 17.2864 7.87207 16.7769C7.36256 16.2674 6.96222 15.6778 6.67106 15.0081C6.38719 14.3312 6.24525 13.6106 6.24525 12.8463C6.24525 12.0748 6.38719 11.3542 6.67106 10.6845C6.96222 10.0149 7.36256 9.42527 7.87207 8.91575C8.38159 8.40623 8.97118 8.00589 9.64083 7.71474C10.3178 7.42358 11.0384 7.27801 11.8027 7.27801C12.5669 7.27801 13.2839 7.42358 13.9536 7.71474C14.6305 8.00589 15.2237 8.40623 15.7332 8.91575C16.2427 9.42527 16.6394 10.0149 16.9233 10.6845C17.2145 11.3542 17.3601 12.0748 17.3601 12.8463C17.3601 13.6106 17.2145 14.3312 16.9233 15.0081C16.6394 15.6778 16.2427 16.2674 15.7332 16.7769C15.2237 17.2864 14.6305 17.6868 13.9536 17.9779C13.2839 18.2618 12.5669 18.4037 11.8027 18.4037Z" fill="black"/>
</svg>
