<svg width="25" height="25" viewBox="0 0 25 25" fill="none" xmlns="http://www.w3.org/2000/svg">
<rect width="25" height="25" fill="white"/>
<path d="M4.17857 10.8047C3.97768 10.9252 3.86049 11.0792 3.82701 11.2667C3.79353 11.4475 3.82366 11.6183 3.91741 11.779C4.01786 11.9397 4.15848 12.0469 4.33929 12.1004C4.52009 12.154 4.72433 12.1105 4.95201 11.9699L7.92522 10.1016C8.12612 9.97433 8.2567 9.80692 8.31696 9.59933C8.37723 9.39174 8.37388 9.18415 8.30692 8.97656C8.23995 8.76897 8.11272 8.60491 7.92522 8.48438L4.95201 6.62612C4.72433 6.48549 4.52009 6.44196 4.33929 6.49554C4.15848 6.54911 4.01786 6.65625 3.91741 6.81696C3.82366 6.97098 3.79353 7.14174 3.82701 7.32924C3.86049 7.51674 3.97768 7.67076 4.17857 7.79129L6.66964 9.28795L4.17857 10.8047ZM8.54799 11.9498C8.54799 12.1373 8.61161 12.298 8.73884 12.4319C8.86607 12.5592 9.02344 12.6228 9.21094 12.6228H13.1585C13.346 12.6228 13.5033 12.5592 13.6306 12.4319C13.7645 12.298 13.8315 12.1373 13.8315 11.9498C13.8315 11.7623 13.7645 11.6049 13.6306 11.4777C13.5033 11.3437 13.346 11.2768 13.1585 11.2768H9.21094C9.02344 11.2768 8.86607 11.3437 8.73884 11.4777C8.61161 11.6049 8.54799 11.7623 8.54799 11.9498ZM3.15402 21.4922C2.10268 21.4922 1.3125 21.231 0.783482 20.7087C0.261161 20.1931 0 19.4196 0 18.3884V6.11384C0 5.07589 0.261161 4.29911 0.783482 3.78348C1.3125 3.26116 2.10268 3 3.15402 3H20.5312C21.5893 3 22.3795 3.26116 22.9018 3.78348C23.4241 4.3058 23.6853 5.08259 23.6853 6.11384V18.3884C23.6853 19.4196 23.4241 20.1931 22.9018 20.7087C22.3795 21.231 21.5893 21.4922 20.5312 21.4922H3.15402Z" fill="black"/>
</svg>
