<svg width="32" height="25" viewBox="0 0 32 25" fill="none" xmlns="http://www.w3.org/2000/svg">
<path d="M2.74962 5.61045C3.60225 2.30804 6.58719 0 10.0055 0H24.1271C29.0236 0 32.6043 4.60891 31.3829 9.33949L28.874 19.057C28.0214 22.3594 25.0364 24.6674 21.6182 24.6674H7.49655C2.6 24.6674 -0.980664 20.0585 0.240703 15.3279L2.74962 5.61045Z" fill="white"/>
<path d="M27.3567 7.50114H22.5252L20.8807 14.0071H25.0997C25.2434 14.0071 25.3417 14.0636 25.3946 14.1768C25.4475 14.2824 25.4589 14.4031 25.4286 14.5389L25.2699 15.1159C25.1943 15.4403 24.9599 15.6024 24.5667 15.6024H20.4611L18.7825 22.1649C18.6918 22.5044 18.4612 22.6741 18.0907 22.6741H17.4216C17.2325 22.6741 17.0964 22.6062 17.0133 22.4704C16.9225 22.3271 16.9036 22.1574 16.9566 21.9613L20.6425 7.50114H19.7352C19.5084 7.50114 19.3647 7.46719 19.3043 7.3993C19.2513 7.32387 19.2589 7.15415 19.3269 6.89014L19.463 6.35836C19.5235 6.16224 19.5878 6.03777 19.6558 5.98497C19.7239 5.92463 19.8675 5.89445 20.0868 5.89445H27.6629C27.8746 5.89445 28.0145 5.93594 28.0825 6.01892C28.1582 6.09435 28.1657 6.24521 28.1052 6.4715L27.9351 7.05986C27.8595 7.35405 27.6667 7.50114 27.3567 7.50114Z" fill="black"/>
<path d="M6.73791 20.5243C7.5923 19.159 8.38242 17.4957 9.10828 15.5345C9.83413 13.5733 10.2235 12.1779 10.2764 11.3481C10.3067 11.0539 10.4919 10.9068 10.8322 10.9068H11.5694C11.8643 10.9068 12.0344 11.0841 12.0797 11.4386C12.3141 14.8029 12.3141 17.8201 12.0797 20.4904C13.4936 18.1746 14.6883 15.0933 15.6636 11.2463C15.7393 10.9219 15.9547 10.7748 16.3101 10.805L16.9566 10.8616C17.1305 10.8767 17.2666 10.937 17.3649 11.0426C17.4632 11.1482 17.4896 11.2802 17.4443 11.4386C16.2269 15.5798 14.8206 18.8837 13.2252 21.3503C12.6506 22.2479 12.1629 22.6892 11.7622 22.6741L11.059 22.6288C10.5827 22.5987 10.3672 22.2215 10.4125 21.4974C10.5033 19.6116 10.5335 17.8427 10.5033 16.1908C9.92864 17.6994 9.05535 19.4192 7.8834 21.3503C7.33901 22.2479 6.86645 22.6892 6.46572 22.6741L5.73986 22.6288C5.26352 22.5987 5.04803 22.2215 5.0934 21.4974C5.28999 17.8616 5.32023 14.5011 5.18413 11.416C5.15389 11.0766 5.33913 10.9068 5.73986 10.9068H6.44303C6.78328 10.9068 6.96096 11.0841 6.97608 11.4386C7.08194 14.5917 7.00255 17.6202 6.73791 20.5243Z" fill="black"/>
</svg>
