<svg width="13" height="12" viewBox="0 0 13 12" fill="none" xmlns="http://www.w3.org/2000/svg">
<rect width="13" height="12" fill="white"/>
<path d="M6.26242 11.0427C6.20075 11.0427 6.13909 11.0246 6.07743 10.9883C6.01576 10.952 5.93234 10.8831 5.82715 10.7815L4.50502 9.50837C4.4615 9.46847 4.43429 9.42494 4.42341 9.37779C4.41615 9.33064 4.42522 9.28529 4.45061 9.24177C4.62835 9.006 4.87681 8.79925 5.19601 8.62151C5.51521 8.44378 5.87067 8.35491 6.26242 8.35491C6.64328 8.35491 6.99149 8.44015 7.30706 8.61063C7.62625 8.78111 7.87472 8.98061 8.05245 9.20912C8.09235 9.25628 8.10686 9.30887 8.09598 9.36691C8.08873 9.42132 8.06515 9.46847 8.02525 9.50837L6.69768 10.7815C6.59249 10.8867 6.50907 10.9556 6.4474 10.9883C6.38574 11.0246 6.32408 11.0427 6.26242 11.0427ZM3.07952 8.08287L2.23619 7.23954C2.18903 7.19238 2.16364 7.1416 2.16002 7.08719C2.16002 7.03278 2.17997 6.982 2.21987 6.93485C2.49554 6.59752 2.84012 6.29646 3.25363 6.03167C3.66713 5.76688 4.1296 5.55831 4.64104 5.40597C5.15611 5.25 5.69657 5.17201 6.26242 5.17201C6.82826 5.17201 7.36691 5.25 7.87835 5.40597C8.39341 5.55831 8.8577 5.76688 9.2712 6.03167C9.68834 6.29646 10.0329 6.59752 10.305 6.93485C10.3449 6.982 10.363 7.0346 10.3594 7.09263C10.3557 7.14704 10.3322 7.19601 10.2886 7.23954L9.44531 8.07743C9.38728 8.13184 9.32561 8.15904 9.26032 8.15904C9.19866 8.15904 9.14244 8.13184 9.09166 8.07743C8.75795 7.7147 8.34082 7.41364 7.84026 7.17425C7.3397 6.93122 6.81376 6.81152 6.26242 6.81515C5.71833 6.81152 5.19601 6.92759 4.69545 7.16336C4.19489 7.39913 3.78139 7.69838 3.45494 8.0611C3.40053 8.11914 3.33887 8.15179 3.26995 8.15904C3.20103 8.16267 3.13756 8.13728 3.07952 8.08287ZM0.821568 5.80859L0.070731 5.04687C0.0272043 4.99609 0.00362723 4.9435 0 4.88909C0 4.83468 0.0181362 4.7839 0.0544086 4.73675C0.478795 4.2108 1.01563 3.74107 1.6649 3.32757C2.31417 2.91406 3.03237 2.58943 3.81948 2.35366C4.60658 2.11789 5.4209 2 6.26242 2C7.10393 2 7.91825 2.1197 8.70536 2.3591C9.49247 2.59487 10.2107 2.9195 10.8599 3.33301C11.5092 3.74289 12.046 4.2108 12.4704 4.73675C12.5103 4.7839 12.5285 4.83468 12.5248 4.88909C12.5248 4.9435 12.5013 4.99609 12.4541 5.04687L11.7033 5.79771C11.6489 5.85212 11.589 5.88114 11.5237 5.88477C11.4584 5.88477 11.4004 5.85937 11.3496 5.80859C10.6858 5.09766 9.92048 4.5572 9.05357 4.18722C8.18666 3.81724 7.25628 3.63225 6.26242 3.63225C5.27581 3.63225 4.34905 3.81724 3.48214 4.18722C2.61886 4.55357 1.85352 5.09222 1.18611 5.80315C1.13532 5.85756 1.07547 5.88658 1.00656 5.89021C0.93764 5.89021 0.875977 5.863 0.821568 5.80859Z" fill="black"/>
</svg>
