<svg width="13" height="12" viewBox="0 0 13 12" fill="none" xmlns="http://www.w3.org/2000/svg">
<rect width="13" height="12" fill="white"/>
<path d="M2.33956 3.2745L3.53655 4.47149C2.66239 4.82333 1.87891 5.3656 1.18611 6.0983C1.13532 6.15271 1.07547 6.18173 1.00656 6.18535C0.93764 6.18535 0.87779 6.15815 0.827009 6.10374L0.070731 5.3529C0.023577 5.30212 0 5.24953 0 5.19512C0 5.14071 0.0181362 5.08993 0.0544086 5.04278C0.344587 4.69819 0.683733 4.37537 1.07185 4.07431C1.45996 3.77325 1.88253 3.50664 2.33956 3.2745ZM6.02846 3.96005L4.55399 2.48558C4.8623 2.42392 5.15611 2.37857 5.43541 2.34956C5.7147 2.32054 5.99037 2.30603 6.26242 2.30603C7.10393 2.30603 7.91643 2.42573 8.69992 2.66513C9.4834 2.90452 10.198 3.23097 10.8436 3.64448C11.4929 4.05798 12.037 4.52408 12.4759 5.04278C12.5121 5.08993 12.5303 5.14071 12.5303 5.19512C12.5303 5.24953 12.5049 5.30212 12.4541 5.3529L11.7033 6.10374C11.6525 6.15815 11.5926 6.18717 11.5237 6.1908C11.4584 6.1908 11.4004 6.1654 11.3496 6.11462C10.6822 5.42908 9.92411 4.8995 9.07533 4.5259C8.23019 4.15229 7.29799 3.95642 6.27874 3.93828C6.23884 3.93828 6.19713 3.9401 6.1536 3.94373C6.11007 3.94735 6.06836 3.95279 6.02846 3.96005ZM4.76618 5.69024L6.19713 7.12662C5.84166 7.13025 5.49526 7.18647 5.15792 7.29529C4.82059 7.40048 4.50684 7.54557 4.21666 7.73056C3.92648 7.91192 3.67257 8.1223 3.45494 8.36169C3.40053 8.41973 3.33887 8.45237 3.26995 8.45963C3.20466 8.46326 3.143 8.43787 3.08496 8.38346L2.24163 7.54557C2.19448 7.49841 2.16908 7.44763 2.16546 7.39322C2.16183 7.33881 2.17997 7.28803 2.21987 7.24088C2.51004 6.89629 2.87277 6.58798 3.30804 6.31594C3.74693 6.04389 4.23298 5.83533 4.76618 5.69024ZM9.95131 7.8829L7.76953 5.70112C8.2846 5.82807 8.76883 6.0312 9.22224 6.31049C9.67564 6.58979 10.0384 6.89992 10.3104 7.24088C10.3467 7.28803 10.363 7.33881 10.3594 7.39322C10.3594 7.44763 10.3358 7.49841 10.2886 7.54557L9.95131 7.8829ZM6.26786 8.66094C6.65234 8.66094 7.00237 8.74618 7.31794 8.91666C7.63351 9.08714 7.88016 9.28664 8.0579 9.51515C8.09417 9.56231 8.10868 9.6149 8.10142 9.67294C8.09417 9.72735 8.06878 9.7745 8.02525 9.8144L6.70857 11.0876C6.59975 11.1891 6.51451 11.258 6.45285 11.2943C6.39118 11.3306 6.32952 11.3487 6.26786 11.3487C6.20982 11.3487 6.14997 11.3306 6.08831 11.2943C6.02665 11.258 5.94141 11.1891 5.83259 11.0876L4.51046 9.8144C4.47056 9.7745 4.44517 9.73097 4.43429 9.68382C4.42341 9.63667 4.43248 9.59132 4.4615 9.5478C4.6356 9.31203 4.88225 9.10528 5.20145 8.92754C5.52427 8.74981 5.87974 8.66094 6.26786 8.66094ZM10.8491 10.8645L1.69754 1.71298C1.61775 1.63681 1.57785 1.53887 1.57785 1.41917C1.57785 1.29947 1.61775 1.19972 1.69754 1.11993C1.77734 1.0365 1.87528 0.996599 1.99135 1.00023C2.11105 1.00023 2.21261 1.04013 2.29604 1.11993L11.4421 10.2714C11.5255 10.3512 11.5654 10.4492 11.5618 10.5652C11.5618 10.6813 11.5219 10.7811 11.4421 10.8645C11.3623 10.9443 11.2644 10.9842 11.1483 10.9842C11.0322 10.9842 10.9325 10.9443 10.8491 10.8645Z" fill="black"/>
</svg>
